<svg width="6192" height="1080" viewBox="0 0 6192 1080" fill="none" xmlns="http://www.w3.org/2000/svg">
<path d="M212.097 569.816C283.523 601.082 350.687 626.86 334.296 670.179C282.453 671.265 240.759 713.817 240.759 766.154C240.759 819.173 283.547 862.154 336.328 862.154C387.878 862.154 429.886 821.154 431.818 769.846H431.897V689.611C431.897 684.111 433.257 678.695 435.852 673.853L437.037 671.639C439.855 666.382 443.582 661.664 447.985 657.696C470.207 644.72 490.302 628.477 507.618 609.617C545.067 650.941 567.898 705.869 567.898 766.154C567.898 894.624 464.221 998.769 336.328 998.769C208.435 998.769 104.758 894.624 104.758 766.154C104.758 683.605 147.566 611.103 212.097 569.816Z" fill="#FFFBF7" fill-opacity="0.968627"/>
<path d="M9.21646 142.143C21.3393 137.272 34.2762 134.769 47.3329 134.769H185.624V673.846H115.785C79.2443 673.846 49.6222 644.09 49.6222 607.385V240.807C49.6222 226.982 45.9427 213.409 38.9649 201.493L35.2588 195.164C32.6123 190.645 29.0381 186.744 24.7738 183.72L7.90683 171.76C2.94865 168.245 0 162.528 0 156.432V155.817C0 149.795 3.65004 144.38 9.21646 142.143Z" fill="#FFFBF7" fill-opacity="0.968627"/>
<path d="M132.842 14.1862C131.61 6.76013 137.31 0 144.805 0C150.841 0 156.533 2.82124 160.206 7.63297L188.129 44.2187C193.795 51.643 200.206 58.463 207.26 64.5714L234.962 88.5604C244.84 97.1144 256.417 103.458 268.925 107.17L330.814 125.538L367.413 136.567C379.453 140.196 390.02 147.605 397.562 157.707L404.823 167.431C406.939 170.266 408.798 173.287 410.376 176.457L416.947 189.658C423.047 201.914 433.199 211.658 445.664 217.223L465.996 226.301C472.612 229.254 479.714 230.956 486.945 231.319L505.825 232.267C510.4 232.497 514.878 233.678 518.975 235.736C524.523 238.522 529.18 242.819 532.415 248.136L539.053 259.047C544.696 268.323 547.682 278.983 547.682 289.853V298.814C547.682 308.616 544.793 318.198 539.381 326.354L538.247 328.061C532.473 336.762 523.808 343.116 513.799 345.988L513.34 346.12C506.922 347.962 500.158 348.237 493.612 346.922C488.034 345.801 482.663 343.818 477.69 341.043L468.654 336L458.521 330.911C453.057 328.167 447.201 326.294 441.163 325.361L439.521 325.107C430.784 323.757 421.935 323.29 413.106 323.712L387.788 324.923L278.886 329.749C268.364 330.216 257.911 327.835 248.618 322.856L244.124 320.449C238.248 317.301 232.947 313.173 228.447 308.242L225.113 304.588C218.495 297.337 213.785 288.54 211.41 278.997L208.37 266.779C207.915 264.951 207.043 263.255 205.822 261.825L205.023 260.889C200.622 255.731 192.679 255.731 188.278 260.889L187.157 262.203C186.168 263.363 185.624 264.84 185.624 266.367C185.624 271.172 180.548 274.263 176.307 272.04L154.712 260.722C147.73 257.064 143.353 249.809 143.353 241.899V144C143.353 138.902 147.467 134.769 152.542 134.769L159.946 135.234C169.013 135.803 174.837 125.731 169.853 118.101L162.062 106.177C149.725 87.2922 141.444 66.0307 137.747 43.7499L132.842 14.1862Z" fill="#FFFBF7" fill-opacity="0.968627"/>
<path d="M437.284 344.382C439.804 344.945 442.23 345.887 444.471 347.174C479.676 367.385 479.961 367.385 503.573 367.385C514.382 367.385 524.485 364.358 533.095 359.105C535.225 357.806 538.092 358.718 538.833 361.107C545.775 383.501 549.519 407.311 549.519 432C549.519 563.529 443.373 670.154 312.436 670.154C225.062 670.154 148.73 622.674 107.608 552H295.895C362.886 552 417.194 497.448 417.194 430.154C417.194 392.991 388.799 365.806 400.739 349.993C403.631 346.161 408.57 344.748 413.264 343.805L413.894 343.678C420.917 342.267 428.157 342.345 435.149 343.906L437.284 344.382Z" fill="#FFFBF7" fill-opacity="0.968627"/>
<path d="M845.899 374.769C868.977 374.77 887.685 393.562 887.685 416.744V817.846C887.685 846.395 864.646 869.538 836.225 869.538H806.819C792.872 869.538 780.224 863.961 770.956 854.91C765.553 851.031 760.544 846.411 756.077 841.064L574.389 623.561C572.184 620.92 567.898 622.487 567.898 625.934V769.846H505.411V611.974C545.844 570.462 575.249 510.18 575.249 444.923C575.249 439.938 575.093 434.99 574.784 430.083C574.555 426.427 579.227 424.446 581.572 427.252L742.376 619.758C746.788 625.039 755.359 621.906 755.359 615.011V465.718C755.359 415.489 795.896 374.769 845.899 374.769Z" fill="#FFFBF7" fill-opacity="0.968627"/>
<path d="M496.222 963.692L509.328 951.99C511.429 950.113 514.412 949.605 517.011 950.681L535.673 958.399C541.191 960.682 547.043 962.05 552.998 962.448L571.574 963.692H597.304L616.597 961.27C623.322 960.425 629.948 958.916 636.378 956.763L659.791 948.923L691.034 937.846L716.349 927.375C720.293 925.744 724.378 924.479 728.552 923.596L750.831 918.885C755.064 917.99 759.378 917.538 763.704 917.538H790.279L812.05 920.272C817.129 920.91 822.14 922.01 827.022 923.558L842.658 928.518C850.582 931.032 858.113 934.658 865.027 939.288L879.774 949.164C882.57 951.036 886.194 948.47 885.379 945.196L883.569 937.923C882.642 934.198 881.194 930.625 879.268 927.308L871.314 913.61C870.076 911.479 870.092 908.839 871.356 906.723C873.269 903.52 877.405 902.481 880.594 904.403L897.353 914.504C900.692 916.516 903.724 919.003 906.356 921.886L917.864 934.497C921.017 937.953 923.836 941.702 926.281 945.694L937.307 963.692L943.535 977.454C945.504 981.805 946.999 986.357 947.996 991.031L952.01 1009.85L955.686 1033.85L957.524 1054.15V1077.27C957.524 1078.78 956.307 1080 954.807 1080C953.052 1080 951.405 1079.15 950.385 1077.71L946.345 1072.03C944.015 1068.76 941.111 1065.93 937.776 1063.7L931.794 1059.69L915.253 1050.46L903.104 1044.36C901.405 1043.51 899.635 1042.8 897.815 1042.25L886.392 1038.81C883.582 1037.96 880.714 1037.33 877.81 1036.91L860.062 1034.37C857.651 1034.02 855.22 1033.85 852.784 1033.85H814.219C810.95 1033.85 808.101 1031.61 807.308 1028.43C807.005 1027.21 807.361 1025.92 808.245 1025.03L816.009 1017.23L819.878 1013.99C824.62 1010.02 829.955 1006.83 835.687 1004.52L839.392 1003.04C843.389 1001.43 847.583 1000.37 851.861 999.896L853.472 999.716C856.602 999.367 857.75 995.39 855.29 993.413C853.645 992.091 851.644 991.291 849.545 991.115L837.305 990.09C832.915 989.723 828.505 989.686 824.11 989.981L813.204 990.711C806.507 991.159 799.853 992.119 793.301 993.582L777.633 997.079C772.601 998.202 767.709 999.882 763.046 1002.09L738.819 1013.54L711.251 1028.31L668.98 1050.46L624.872 1067.08L597.304 1074.46L569.736 1078.15L540.33 1080L512.762 1078.15L485.194 1072.62L459.819 1064.57C453.469 1062.55 447.315 1059.96 441.43 1056.83L419.032 1044.92L402.898 1036.2C397.733 1033.4 392.783 1030.22 388.09 1026.69L381.67 1021.85C380.867 1021.25 380.266 1020.41 379.949 1019.45C379.236 1017.31 380.582 1015.02 382.799 1014.62L398.815 1011.69L419.032 1006.15L446.599 995.077L474.167 980.308L485.194 972.923L496.222 963.692Z" fill="#FFFBF7" fill-opacity="0.968627"/>
<path d="M1260.37 762.68V334.421C1282.7 324.92 1308.35 318.032 1337.33 313.757C1366.3 309.006 1394.57 306.631 1422.12 306.631C1503.36 306.631 1565.11 326.346 1607.39 365.775C1649.67 404.729 1670.81 461.735 1670.81 536.793C1670.81 589.999 1660.6 633.229 1640.17 666.482C1620.22 699.736 1592.19 724.201 1556.09 739.878C1519.98 755.08 1478.42 762.68 1431.39 762.68H1260.37ZM1382.93 670.045H1424.97C1461.08 670.045 1489.34 659.119 1509.77 637.267C1530.67 615.414 1541.12 581.923 1541.12 536.793C1541.12 493.089 1531.15 460.31 1511.2 438.458C1491.24 416.13 1462.26 404.967 1424.26 404.967C1417.61 404.967 1410.72 405.442 1403.6 406.392C1396.47 406.867 1389.58 408.054 1382.93 409.955V670.045Z" fill="#FFFBF7" fill-opacity="0.968627"/>
<path d="M1923.79 766.956C1860.61 766.956 1813.34 752.229 1781.99 722.776C1750.63 693.323 1734.96 651.043 1734.96 595.937V309.481H1856.09V593.8C1856.09 618.027 1862.03 636.317 1873.91 648.668C1886.26 660.544 1903.36 666.482 1925.21 666.482C1969.39 666.482 1991.48 642.255 1991.48 593.8V309.481H2112.62V595.937C2112.62 651.043 2096.94 693.323 2065.59 722.776C2034.71 752.229 1987.44 766.956 1923.79 766.956Z" fill="#FFFBF7" fill-opacity="0.968627"/>
<path d="M2183.79 762.68V309.481H2318.47L2468.82 588.812V309.481H2589.96V762.68H2451.72L2304.93 494.039V762.68H2183.79Z" fill="#FFFBF7" fill-opacity="0.968627"/>
<path d="M2884.91 767.668C2840.26 767.668 2800.35 759.118 2765.2 742.016C2730.52 724.439 2703.21 698.311 2683.25 663.632C2663.78 628.953 2654.04 585.961 2654.04 534.656C2654.04 465.298 2673.04 410.192 2711.04 369.338C2749.52 328.008 2806.05 307.343 2880.64 307.343C2920.07 307.343 2954.03 312.569 2982.54 323.02C3011.51 333.471 3035.5 346.06 3054.51 360.787L3018.17 443.446C3003.44 433.945 2985.39 426.106 2964.01 419.931C2943.11 413.28 2922.2 409.955 2901.3 409.955C2863.3 409.955 2833.85 421.593 2812.94 444.871C2792.52 467.673 2782.3 498.077 2782.3 536.081C2782.3 566.009 2788 590.474 2799.4 609.476C2810.81 628.003 2825.77 641.78 2844.3 650.806C2862.82 659.357 2882.54 663.632 2903.44 663.632C2914.37 663.632 2923.87 662.92 2931.94 661.494C2940.02 659.594 2945.96 657.694 2949.76 655.794V587.386H2872.8V496.176H3070.9V697.123C3053.32 718.026 3028.14 735.127 2995.36 748.429C2962.58 761.255 2925.77 767.668 2884.91 767.668Z" fill="#FFFBF7" fill-opacity="0.968627"/>
<path d="M3142.01 762.68V309.481H3468.37V402.116H3263.15V486.2H3440.58V578.835H3263.15V670.045H3472.65V762.68H3142.01Z" fill="#FFFBF7" fill-opacity="0.968627"/>
<path d="M3759.61 765.531C3712.11 765.531 3671.01 756.505 3636.34 738.453C3602.13 719.926 3575.77 693.56 3557.24 659.357C3538.71 625.153 3529.45 584.299 3529.45 536.793C3529.45 489.288 3538.71 448.434 3557.24 414.23C3575.77 379.551 3602.13 352.948 3636.34 334.421C3671.01 315.894 3712.11 306.631 3759.61 306.631C3807.12 306.631 3847.5 315.894 3880.75 334.421C3914.48 352.948 3940.13 379.551 3957.71 414.23C3975.28 448.434 3984.07 489.288 3984.07 536.793C3984.07 608.051 3964.36 664.107 3924.93 704.962C3885.97 745.341 3830.87 765.531 3759.61 765.531ZM3759.61 662.92C3791.91 662.92 3816.38 652.468 3833.01 631.566C3850.11 610.189 3858.66 578.835 3858.66 537.506C3858.66 496.177 3850.11 464.586 3833.01 442.733C3816.38 420.406 3791.91 409.242 3759.61 409.242C3727.31 409.242 3701.66 420.406 3682.65 442.733C3664.13 464.586 3654.86 496.177 3654.86 537.506C3654.86 578.835 3664.13 610.189 3682.65 631.566C3701.66 652.468 3727.31 662.92 3759.61 662.92Z" fill="#FFFBF7" fill-opacity="0.968627"/>
<path d="M4055 762.68V309.481H4189.68L4340.03 588.812V309.481H4461.17V762.68H4322.93L4176.14 494.039V762.68H4055Z" fill="#FFFBF7" fill-opacity="0.968627"/>
<path d="M4755.41 765.531C4707.9 765.531 4666.81 756.505 4632.13 738.453C4597.93 719.926 4571.56 693.56 4553.04 659.357C4534.51 625.153 4525.25 584.299 4525.25 536.793C4525.25 489.288 4534.51 448.434 4553.04 414.23C4571.56 379.551 4597.93 352.948 4632.13 334.421C4666.81 315.894 4707.9 306.631 4755.41 306.631C4802.91 306.631 4843.29 315.894 4876.55 334.421C4910.27 352.948 4935.93 379.551 4953.5 414.23C4971.08 448.434 4979.87 489.288 4979.87 536.793C4979.87 608.051 4960.16 664.107 4920.73 704.962C4881.77 745.341 4826.67 765.531 4755.41 765.531ZM4755.41 662.92C4787.71 662.92 4812.18 652.468 4828.8 631.566C4845.91 610.189 4854.46 578.835 4854.46 537.506C4854.46 496.177 4845.91 464.586 4828.8 442.733C4812.18 420.406 4787.71 409.242 4755.41 409.242C4723.1 409.242 4697.45 420.406 4678.45 442.733C4659.92 464.586 4650.66 496.177 4650.66 537.506C4650.66 578.835 4659.92 610.189 4678.45 631.566C4697.45 652.468 4723.1 662.92 4755.41 662.92Z" fill="#FFFBF7" fill-opacity="0.968627"/>
<path d="M5147.16 762.68V404.254H5029.59V309.481H5385.88V404.254H5268.3V762.68H5147.16Z" fill="#FFFBF7" fill-opacity="0.968627"/>
<path d="M5442.58 762.68V309.481H5768.94V402.116H5563.71V486.2H5741.15V578.835H5563.71V670.045H5773.21V762.68H5442.58Z" fill="#FFFBF7" fill-opacity="0.968627"/>
<path d="M6012.43 769.094C5976.33 769.094 5941.65 763.868 5908.39 753.417C5875.62 742.491 5849.49 728.714 5830.01 712.087L5869.2 624.44C5879.18 632.041 5891.53 638.929 5906.26 645.105C5920.98 651.281 5936.9 656.269 5954 660.069C5971.1 663.87 5987.49 665.77 6003.17 665.77C6025.97 665.77 6041.65 662.207 6050.2 655.081C6058.75 647.955 6063.02 639.642 6063.02 630.141C6063.02 620.64 6059.46 613.039 6052.34 607.339C6045.68 601.638 6034.76 595.937 6019.56 590.237L5959.7 568.147C5922.65 554.37 5892.72 537.743 5869.92 518.266C5847.59 498.314 5836.42 470.999 5836.42 436.32C5836.42 395.941 5852.1 364.35 5883.45 341.547C5915.28 318.27 5960.41 306.631 6018.84 306.631C6056.85 306.631 6089.63 311.381 6117.18 320.882C6145.21 329.908 6168.01 342.022 6185.59 357.224L6149.25 440.595C6139.27 434.895 6126.92 429.669 6112.19 424.919C6097.46 420.168 6082.03 416.605 6065.87 414.23C6050.2 411.38 6035.23 409.955 6020.98 409.955C6001.5 409.955 5987.25 412.567 5978.23 417.793C5969.68 423.019 5965.4 429.907 5965.4 438.458C5965.4 445.583 5968.73 452.234 5975.38 458.41C5982.03 464.11 5993.19 469.811 6008.87 475.512L6060.89 494.751C6108.87 512.328 6142.59 531.093 6162.07 551.045C6182.02 570.522 6192 595.7 6192 626.578C6192 667.908 6176.56 702.111 6145.68 729.189C6115.28 755.792 6070.86 769.094 6012.43 769.094Z" fill="#FFFBF7" fill-opacity="0.968627"/>
</svg>
